<?xml version="1.0" standalone="no"?>
<!DOCTYPE svg PUBLIC "-//W3C//DTD SVG 20010904//EN"
 "http://www.w3.org/TR/2001/REC-SVG-20010904/DTD/svg10.dtd">
<svg version="1.0" xmlns="http://www.w3.org/2000/svg"
 width="200.000000pt" height="200.000000pt" viewBox="0 0 200.000000 200.000000"
 preserveAspectRatio="xMidYMid meet">

<g transform="translate(0.000000,200.000000) scale(0.100000,-0.100000)"
fill="#000000" stroke="none">
<path d="M160 1045 c-52 -64 -95 -124 -95 -133 0 -15 13 -17 93 -20 l92 -3 0
-39 c0 -29 4 -40 15 -40 15 0 29 35 23 60 -2 7 8 16 21 19 34 9 39 31 7 31
l-26 0 -1 103 c-1 56 -2 109 -3 117 -3 39 -37 13 -126 -95z m90 -35 l0 -90
-71 0 c-58 0 -70 3 -66 15 6 15 127 165 133 165 2 0 4 -40 4 -90z"/>
<path d="M413 1144 c-45 -19 -43 -38 2 -30 l35 7 0 -156 c0 -126 3 -155 14
-155 8 0 17 7 20 16 8 20 8 298 0 318 -7 19 -28 19 -71 0z"/>
<path d="M650 1137 c-54 -35 -75 -81 -74 -158 0 -106 50 -169 138 -172 81 -3
138 58 144 157 10 150 -104 244 -208 173z m104 -17 c78 -29 95 -188 29 -255
-30 -30 -86 -34 -122 -9 -71 50 -66 211 8 257 30 19 50 21 85 7z"/>
<path d="M1800 1073 c-32 -12 -50 -37 -50 -69 0 -38 23 -58 80 -69 51 -10 80
-32 80 -60 0 -49 -71 -70 -131 -39 -38 19 -50 11 -15 -11 14 -10 45 -17 73
-17 39 0 52 5 70 27 13 14 23 33 23 41 0 22 -44 62 -77 69 -59 13 -83 28 -90
53 -5 19 0 30 18 45 23 19 59 19 119 2 24 -7 25 -7 4 8 -23 18 -82 29 -104 20z"/>
<path d="M940 942 l0 -132 88 2 87 2 -80 5 -80 6 -2 118 c0 65 -4 121 -7 124
-3 4 -6 -53 -6 -125z"/>
<path d="M1215 944 c-31 -69 -54 -128 -51 -131 3 -3 13 10 21 30 l15 37 84 0
85 0 12 -35 c7 -19 17 -35 22 -35 11 0 14 -8 -53 139 -30 66 -60 121 -66 121
-6 0 -37 -57 -69 -126z m132 -40 c-2 -3 -34 -4 -69 -2 l-65 3 35 75 34 75 35
-73 c20 -40 33 -75 30 -78z"/>
<path d="M1478 993 c-2 -43 -2 -102 0 -130 l3 -53 70 0 c96 0 129 18 129 72 0
19 -8 33 -25 44 l-26 17 21 22 c26 27 26 55 0 83 -18 19 -32 22 -95 22 l-73 0
-4 -77z m150 51 c26 -18 28 -50 5 -76 -12 -14 -31 -18 -80 -18 l-63 0 0 48 c0
27 3 52 7 55 13 13 109 7 131 -9z m32 -147 c14 -27 14 -29 -14 -53 -24 -22
-36 -25 -90 -22 l-61 3 -3 53 -3 53 78 -3 c73 -3 78 -5 93 -31z"/>
</g>
</svg>
